<mxfile host="app.diagrams.net" modified="2022-08-25T06:28:26.368Z" agent="5.0 (Macintosh; Intel Mac OS X 10_15_7) AppleWebKit/537.36 (KHTML, like Gecko) Chrome/98.0.4758.102 Safari/537.36" etag="FuQQ_K7LlHCGShymNsKS" version="20.1.4" type="github">
  <diagram id="prtHgNgQTEPvFCAcTncT" name="Page-1">
    <mxGraphModel dx="946" dy="557" grid="1" gridSize="10" guides="1" tooltips="1" connect="1" arrows="1" fold="1" page="1" pageScale="1" pageWidth="827" pageHeight="1169" math="0" shadow="0">
      <root>
        <mxCell id="0" />
        <mxCell id="1" parent="0" />
        <mxCell id="de27Jn-yOiYLT7hn4Wbn-1" value="数据流向图" style="swimlane;html=1;childLayout=stackLayout;startSize=20;rounded=0;shadow=0;labelBackgroundColor=none;strokeWidth=1;fontFamily=Verdana;fontSize=8;align=center;fontColor=#1C0E00;" vertex="1" parent="1">
          <mxGeometry x="70" y="40" width="730" height="850" as="geometry" />
        </mxCell>
        <mxCell id="de27Jn-yOiYLT7hn4Wbn-2" value="数据来源" style="swimlane;html=1;startSize=20;fontColor=#1C0E00;labelBackgroundColor=none;" vertex="1" parent="de27Jn-yOiYLT7hn4Wbn-1">
          <mxGeometry y="20" width="280" height="830" as="geometry" />
        </mxCell>
        <mxCell id="de27Jn-yOiYLT7hn4Wbn-3" value="&lt;p style=&quot;line-height: 18px;&quot;&gt;&lt;font style=&quot;&quot; face=&quot;Menlo, Monaco, Courier New, monospace&quot;&gt;接口&lt;/font&gt;&lt;span style=&quot;font-family: Menlo, Monaco, &amp;quot;Courier New&amp;quot;, monospace; font-size: 12px;&quot;&gt;&#39;GET&#39;&lt;/span&gt;&lt;/p&gt;&lt;div style=&quot;font-family: Menlo, Monaco, &amp;quot;Courier New&amp;quot;, monospace; font-size: 12px; line-height: 18px;&quot;&gt;/system/config/options&lt;/div&gt;" style="rounded=1;whiteSpace=wrap;html=1;shadow=0;labelBackgroundColor=none;strokeWidth=1;fontFamily=Verdana;fontSize=8;align=center;fontColor=#1C0E00;" vertex="1" parent="de27Jn-yOiYLT7hn4Wbn-2">
          <mxGeometry x="55" y="67.5" width="170" height="55" as="geometry" />
        </mxCell>
        <mxCell id="de27Jn-yOiYLT7hn4Wbn-4" value="&lt;p style=&quot;line-height: 18px;&quot;&gt;&lt;font style=&quot;&quot; face=&quot;Menlo, Monaco, Courier New, monospace&quot;&gt;接口&lt;/font&gt;&lt;span style=&quot;font-family: Menlo, Monaco, &amp;quot;Courier New&amp;quot;, monospace; font-size: 12px;&quot;&gt;&#39;PUT&#39;&lt;/span&gt;&lt;/p&gt;&lt;p style=&quot;line-height: 18px;&quot;&gt;&lt;font style=&quot;&quot; face=&quot;Menlo, Monaco, Courier New, monospace&quot;&gt;/api/applications&lt;/font&gt;&lt;br&gt;&lt;/p&gt;" style="rounded=1;whiteSpace=wrap;html=1;shadow=0;labelBackgroundColor=none;strokeWidth=1;fontFamily=Verdana;fontSize=8;align=center;fontColor=#CCCCCC;" vertex="1" parent="de27Jn-yOiYLT7hn4Wbn-2">
          <mxGeometry x="75" y="592.5" width="130" height="55" as="geometry" />
        </mxCell>
        <mxCell id="de27Jn-yOiYLT7hn4Wbn-29" value="&lt;p style=&quot;line-height: 18px;&quot;&gt;&lt;font color=&quot;#b266ff&quot;&gt;&lt;font style=&quot;&quot; face=&quot;Menlo, Monaco, Courier New, monospace&quot;&gt;接口&lt;/font&gt;&lt;span style=&quot;font-family: Menlo, Monaco, &amp;quot;Courier New&amp;quot;, monospace; font-size: 12px;&quot;&gt;&#39;GET&#39;&lt;/span&gt;&lt;/font&gt;&lt;/p&gt;&lt;div style=&quot;font-family: Menlo, Monaco, &amp;quot;Courier New&amp;quot;, monospace; font-size: 12px; line-height: 18px;&quot;&gt;&lt;span style=&quot;&quot;&gt;&lt;font color=&quot;#b266ff&quot;&gt;异步获取租户开通应用&lt;/font&gt;&lt;/span&gt;&lt;/div&gt;" style="rounded=1;whiteSpace=wrap;html=1;shadow=0;labelBackgroundColor=none;strokeWidth=1;fontFamily=Verdana;fontSize=8;align=center;fontColor=#1C0E00;" vertex="1" parent="de27Jn-yOiYLT7hn4Wbn-2">
          <mxGeometry x="55" y="330" width="170" height="55" as="geometry" />
        </mxCell>
        <mxCell id="de27Jn-yOiYLT7hn4Wbn-52" value="&lt;p style=&quot;line-height: 18px;&quot;&gt;&lt;font face=&quot;Menlo, Monaco, Courier New, monospace&quot;&gt;接口&#39;GET&#39;&lt;br&gt;&lt;/font&gt;&lt;/p&gt;&lt;div style=&quot;font-family: Menlo, Monaco, &amp;quot;Courier New&amp;quot;, monospace; font-size: 12px; line-height: 18px;&quot;&gt;&lt;span style=&quot;&quot;&gt;system/config/options&lt;br&gt;&lt;/span&gt;&lt;div style=&quot;line-height: 18px;&quot;&gt;&lt;span style=&quot;&quot;&gt;system/config/enterprise/info&lt;/span&gt;&lt;/div&gt;&lt;div style=&quot;line-height: 18px;&quot;&gt;&lt;div style=&quot;line-height: 18px;&quot;&gt;&lt;span style=&quot;&quot;&gt;system/config/custom-mail-sender&lt;/span&gt;&lt;/div&gt;&lt;/div&gt;&lt;/div&gt;" style="rounded=1;whiteSpace=wrap;html=1;shadow=0;labelBackgroundColor=none;strokeWidth=1;fontFamily=Verdana;fontSize=8;align=center;fontColor=#CCCCCC;" vertex="1" parent="de27Jn-yOiYLT7hn4Wbn-2">
          <mxGeometry x="20" y="680" width="240" height="110" as="geometry" />
        </mxCell>
        <mxCell id="de27Jn-yOiYLT7hn4Wbn-5" style="edgeStyle=orthogonalEdgeStyle;rounded=1;html=1;labelBackgroundColor=none;startArrow=none;startFill=0;startSize=5;endArrow=classicThin;endFill=1;endSize=5;jettySize=auto;orthogonalLoop=1;strokeWidth=1;fontFamily=Verdana;fontSize=8;fontColor=#1C0E00;" edge="1" parent="de27Jn-yOiYLT7hn4Wbn-1" source="de27Jn-yOiYLT7hn4Wbn-3" target="de27Jn-yOiYLT7hn4Wbn-7">
          <mxGeometry relative="1" as="geometry" />
        </mxCell>
        <mxCell id="de27Jn-yOiYLT7hn4Wbn-6" value="状态管理" style="swimlane;html=1;startSize=20;fontColor=#1C0E00;labelBackgroundColor=none;" vertex="1" parent="de27Jn-yOiYLT7hn4Wbn-1">
          <mxGeometry x="280" y="20" width="200" height="830" as="geometry" />
        </mxCell>
        <mxCell id="de27Jn-yOiYLT7hn4Wbn-7" value="&lt;div style=&quot;font-family: Menlo, Monaco, &amp;quot;Courier New&amp;quot;, monospace; font-size: 12px; line-height: 18px;&quot;&gt;state:optionsData&lt;/div&gt;" style="rounded=1;whiteSpace=wrap;html=1;shadow=0;labelBackgroundColor=none;strokeWidth=1;fontFamily=Verdana;fontSize=8;align=center;fontColor=#1C0E00;" vertex="1" parent="de27Jn-yOiYLT7hn4Wbn-6">
          <mxGeometry x="30" y="67.5" width="140" height="55" as="geometry" />
        </mxCell>
        <mxCell id="de27Jn-yOiYLT7hn4Wbn-21" value="&lt;div style=&quot;font-family: Menlo, Monaco, &amp;quot;Courier New&amp;quot;, monospace; font-size: 12px; line-height: 18px;&quot;&gt;局部context，供表单使用&lt;/div&gt;" style="rounded=1;whiteSpace=wrap;html=1;shadow=0;labelBackgroundColor=none;strokeWidth=1;fontFamily=Verdana;fontSize=8;align=center;fontColor=#1C0E00;" vertex="1" parent="de27Jn-yOiYLT7hn4Wbn-6">
          <mxGeometry x="50" y="240" width="100" height="60" as="geometry" />
        </mxCell>
        <mxCell id="de27Jn-yOiYLT7hn4Wbn-23" value="" style="endArrow=classic;html=1;rounded=0;exitX=0.5;exitY=1;exitDx=0;exitDy=0;entryX=0.5;entryY=0;entryDx=0;entryDy=0;labelBackgroundColor=none;fontColor=#1C0E00;" edge="1" parent="de27Jn-yOiYLT7hn4Wbn-6" source="de27Jn-yOiYLT7hn4Wbn-7" target="de27Jn-yOiYLT7hn4Wbn-21">
          <mxGeometry width="50" height="50" relative="1" as="geometry">
            <mxPoint x="90" y="200" as="sourcePoint" />
            <mxPoint x="140" y="150" as="targetPoint" />
          </mxGeometry>
        </mxCell>
        <mxCell id="de27Jn-yOiYLT7hn4Wbn-32" value="&lt;div style=&quot;font-family: Menlo, Monaco, &amp;quot;Courier New&amp;quot;, monospace; font-size: 12px; line-height: 18px;&quot;&gt;state&lt;/div&gt;&lt;div style=&quot;font-family: Menlo, Monaco, &amp;quot;Courier New&amp;quot;, monospace; font-size: 12px; line-height: 18px;&quot;&gt;applicationOptions&lt;/div&gt;" style="rounded=1;whiteSpace=wrap;html=1;shadow=0;labelBackgroundColor=none;strokeWidth=1;fontFamily=Verdana;fontSize=8;align=center;fontColor=#1C0E00;" vertex="1" parent="de27Jn-yOiYLT7hn4Wbn-6">
          <mxGeometry x="15" y="480" width="170" height="60" as="geometry" />
        </mxCell>
        <mxCell id="de27Jn-yOiYLT7hn4Wbn-8" value="组件" style="swimlane;html=1;startSize=20;fontColor=#1C0E00;labelBackgroundColor=none;" vertex="1" parent="de27Jn-yOiYLT7hn4Wbn-1">
          <mxGeometry x="480" y="20" width="250" height="830" as="geometry" />
        </mxCell>
        <mxCell id="de27Jn-yOiYLT7hn4Wbn-9" value="&lt;div style=&quot;font-family: Menlo, Monaco, &amp;quot;Courier New&amp;quot;, monospace; font-size: 12px; line-height: 18px;&quot;&gt;&lt;div style=&quot;line-height: 18px;&quot;&gt;渲染当前预算设置模块默认值&lt;/div&gt;&lt;/div&gt;" style="rounded=1;whiteSpace=wrap;html=1;shadow=0;labelBackgroundColor=none;strokeWidth=1;fontFamily=Verdana;fontSize=8;align=center;fontColor=#1C0E00;" vertex="1" parent="de27Jn-yOiYLT7hn4Wbn-8">
          <mxGeometry x="75" y="60" width="100" height="60" as="geometry" />
        </mxCell>
        <mxCell id="de27Jn-yOiYLT7hn4Wbn-11" value="&lt;div style=&quot;font-family: Menlo, Monaco, &amp;quot;Courier New&amp;quot;, monospace; font-size: 12px; line-height: 18px;&quot;&gt;根据edit中对type的判断打开不同弹窗，这里new 一个新的弹窗&lt;/div&gt;" style="rounded=1;whiteSpace=wrap;html=1;shadow=0;labelBackgroundColor=none;strokeWidth=1;fontFamily=Verdana;fontSize=8;align=center;fontColor=#1C0E00;" vertex="1" parent="de27Jn-yOiYLT7hn4Wbn-8">
          <mxGeometry x="10" y="240" width="230" height="60" as="geometry" />
        </mxCell>
        <mxCell id="de27Jn-yOiYLT7hn4Wbn-12" value="渲染form,设置表单默认值：“不使用预算”" style="rounded=1;whiteSpace=wrap;html=1;shadow=0;labelBackgroundColor=none;strokeWidth=1;fontFamily=Verdana;fontSize=8;align=center;fontColor=#1C0E00;" vertex="1" parent="de27Jn-yOiYLT7hn4Wbn-8">
          <mxGeometry x="9" y="330" width="230" height="60" as="geometry" />
        </mxCell>
        <mxCell id="de27Jn-yOiYLT7hn4Wbn-14" value="保存校验" style="rounded=1;whiteSpace=wrap;html=1;shadow=0;labelBackgroundColor=none;strokeWidth=1;fontFamily=Verdana;fontSize=8;align=center;fontColor=#1C0E00;" vertex="1" parent="de27Jn-yOiYLT7hn4Wbn-8">
          <mxGeometry x="9" y="590" width="230" height="60" as="geometry" />
        </mxCell>
        <mxCell id="de27Jn-yOiYLT7hn4Wbn-25" value="" style="endArrow=classic;html=1;rounded=0;exitX=0.5;exitY=1;exitDx=0;exitDy=0;labelBackgroundColor=none;fontColor=#1C0E00;" edge="1" parent="de27Jn-yOiYLT7hn4Wbn-8" source="de27Jn-yOiYLT7hn4Wbn-9" target="de27Jn-yOiYLT7hn4Wbn-11">
          <mxGeometry width="50" height="50" relative="1" as="geometry">
            <mxPoint x="110" y="180" as="sourcePoint" />
            <mxPoint x="160" y="130" as="targetPoint" />
          </mxGeometry>
        </mxCell>
        <mxCell id="de27Jn-yOiYLT7hn4Wbn-26" value="&amp;nbsp;编辑操作" style="text;html=1;align=center;verticalAlign=middle;resizable=0;points=[];autosize=1;strokeColor=default;fillColor=default;dashed=1;labelBackgroundColor=none;fontColor=#1C0E00;" vertex="1" parent="de27Jn-yOiYLT7hn4Wbn-8">
          <mxGeometry x="80" y="170" width="80" height="30" as="geometry" />
        </mxCell>
        <mxCell id="de27Jn-yOiYLT7hn4Wbn-27" value="" style="endArrow=classic;html=1;rounded=0;exitX=0.5;exitY=1;exitDx=0;exitDy=0;entryX=0.5;entryY=0;entryDx=0;entryDy=0;labelBackgroundColor=none;fontColor=#1C0E00;" edge="1" parent="de27Jn-yOiYLT7hn4Wbn-8" source="de27Jn-yOiYLT7hn4Wbn-11" target="de27Jn-yOiYLT7hn4Wbn-12">
          <mxGeometry width="50" height="50" relative="1" as="geometry">
            <mxPoint x="119.5" y="340" as="sourcePoint" />
            <mxPoint x="120" y="330" as="targetPoint" />
          </mxGeometry>
        </mxCell>
        <mxCell id="de27Jn-yOiYLT7hn4Wbn-34" value="展示全部应用选项" style="rounded=1;whiteSpace=wrap;html=1;shadow=0;labelBackgroundColor=none;strokeWidth=1;fontFamily=Verdana;fontSize=8;align=center;fontColor=#1C0E00;" vertex="1" parent="de27Jn-yOiYLT7hn4Wbn-8">
          <mxGeometry x="9" y="480" width="230" height="60" as="geometry" />
        </mxCell>
        <mxCell id="de27Jn-yOiYLT7hn4Wbn-38" value="" style="endArrow=classic;html=1;rounded=0;exitX=0.5;exitY=1;exitDx=0;exitDy=0;startArrow=none;labelBackgroundColor=none;fontColor=#1C0E00;" edge="1" parent="de27Jn-yOiYLT7hn4Wbn-8" source="de27Jn-yOiYLT7hn4Wbn-39" target="de27Jn-yOiYLT7hn4Wbn-34">
          <mxGeometry width="50" height="50" relative="1" as="geometry">
            <mxPoint x="80" y="460" as="sourcePoint" />
            <mxPoint x="130" y="410" as="targetPoint" />
          </mxGeometry>
        </mxCell>
        <mxCell id="de27Jn-yOiYLT7hn4Wbn-41" value="" style="edgeStyle=orthogonalEdgeStyle;rounded=0;orthogonalLoop=1;jettySize=auto;html=1;labelBackgroundColor=none;fontColor=#1C0E00;" edge="1" parent="de27Jn-yOiYLT7hn4Wbn-8" source="de27Jn-yOiYLT7hn4Wbn-39" target="de27Jn-yOiYLT7hn4Wbn-34">
          <mxGeometry relative="1" as="geometry" />
        </mxCell>
        <mxCell id="de27Jn-yOiYLT7hn4Wbn-39" value="loading" style="text;html=1;align=center;verticalAlign=middle;resizable=0;points=[];autosize=1;strokeColor=default;fillColor=default;dashed=1;labelBackgroundColor=none;fontColor=#1C0E00;" vertex="1" parent="de27Jn-yOiYLT7hn4Wbn-8">
          <mxGeometry x="94" y="414" width="60" height="30" as="geometry" />
        </mxCell>
        <mxCell id="de27Jn-yOiYLT7hn4Wbn-40" value="" style="endArrow=none;html=1;rounded=0;exitX=0.5;exitY=1;exitDx=0;exitDy=0;labelBackgroundColor=none;fontColor=#1C0E00;" edge="1" parent="de27Jn-yOiYLT7hn4Wbn-8" source="de27Jn-yOiYLT7hn4Wbn-12" target="de27Jn-yOiYLT7hn4Wbn-39">
          <mxGeometry width="50" height="50" relative="1" as="geometry">
            <mxPoint x="605" y="450" as="sourcePoint" />
            <mxPoint x="605" y="510" as="targetPoint" />
          </mxGeometry>
        </mxCell>
        <mxCell id="de27Jn-yOiYLT7hn4Wbn-44" value="" style="endArrow=classic;html=1;rounded=0;exitX=0.5;exitY=1;exitDx=0;exitDy=0;entryX=0.5;entryY=0;entryDx=0;entryDy=0;labelBackgroundColor=none;fontColor=#1C0E00;" edge="1" parent="de27Jn-yOiYLT7hn4Wbn-8" source="de27Jn-yOiYLT7hn4Wbn-34" target="de27Jn-yOiYLT7hn4Wbn-14">
          <mxGeometry width="50" height="50" relative="1" as="geometry">
            <mxPoint x="100" y="730" as="sourcePoint" />
            <mxPoint x="150" y="680" as="targetPoint" />
          </mxGeometry>
        </mxCell>
        <mxCell id="de27Jn-yOiYLT7hn4Wbn-48" value="关闭弹窗/刷新页面数据" style="rounded=1;whiteSpace=wrap;html=1;shadow=0;labelBackgroundColor=none;strokeWidth=1;fontFamily=Verdana;fontSize=8;align=center;fontColor=#1C0E00;" vertex="1" parent="de27Jn-yOiYLT7hn4Wbn-8">
          <mxGeometry x="9" y="680" width="230" height="60" as="geometry" />
        </mxCell>
        <mxCell id="de27Jn-yOiYLT7hn4Wbn-49" value="end" style="rounded=1;whiteSpace=wrap;html=1;shadow=0;labelBackgroundColor=none;strokeWidth=1;fontFamily=Verdana;fontSize=8;align=center;fontColor=#1C0E00;" vertex="1" parent="de27Jn-yOiYLT7hn4Wbn-8">
          <mxGeometry x="69" y="770" width="110" height="40" as="geometry" />
        </mxCell>
        <mxCell id="de27Jn-yOiYLT7hn4Wbn-50" value="" style="endArrow=classic;html=1;rounded=0;exitX=0.5;exitY=1;exitDx=0;exitDy=0;labelBackgroundColor=none;fontColor=#1C0E00;" edge="1" parent="de27Jn-yOiYLT7hn4Wbn-8" source="de27Jn-yOiYLT7hn4Wbn-14" target="de27Jn-yOiYLT7hn4Wbn-48">
          <mxGeometry width="50" height="50" relative="1" as="geometry">
            <mxPoint x="80" y="660" as="sourcePoint" />
            <mxPoint x="-340" y="740" as="targetPoint" />
          </mxGeometry>
        </mxCell>
        <mxCell id="de27Jn-yOiYLT7hn4Wbn-54" value="" style="endArrow=classic;html=1;rounded=0;exitX=0.5;exitY=1;exitDx=0;exitDy=0;entryX=0.5;entryY=0;entryDx=0;entryDy=0;labelBackgroundColor=none;fontColor=#1C0E00;" edge="1" parent="de27Jn-yOiYLT7hn4Wbn-8" source="de27Jn-yOiYLT7hn4Wbn-48" target="de27Jn-yOiYLT7hn4Wbn-49">
          <mxGeometry width="50" height="50" relative="1" as="geometry">
            <mxPoint x="90" y="800" as="sourcePoint" />
            <mxPoint x="140" y="750" as="targetPoint" />
          </mxGeometry>
        </mxCell>
        <mxCell id="de27Jn-yOiYLT7hn4Wbn-24" value="" style="endArrow=classic;html=1;rounded=0;exitX=1;exitY=0.5;exitDx=0;exitDy=0;entryX=0;entryY=0.5;entryDx=0;entryDy=0;labelBackgroundColor=none;fontColor=#1C0E00;" edge="1" parent="de27Jn-yOiYLT7hn4Wbn-1" source="de27Jn-yOiYLT7hn4Wbn-21" target="de27Jn-yOiYLT7hn4Wbn-11">
          <mxGeometry width="50" height="50" relative="1" as="geometry">
            <mxPoint x="320" y="280" as="sourcePoint" />
            <mxPoint x="370" y="230" as="targetPoint" />
          </mxGeometry>
        </mxCell>
        <mxCell id="de27Jn-yOiYLT7hn4Wbn-31" value="" style="endArrow=classic;html=1;rounded=0;exitX=0;exitY=0.5;exitDx=0;exitDy=0;entryX=1;entryY=0.5;entryDx=0;entryDy=0;labelBackgroundColor=none;fontColor=#1C0E00;" edge="1" parent="de27Jn-yOiYLT7hn4Wbn-1" source="de27Jn-yOiYLT7hn4Wbn-12" target="de27Jn-yOiYLT7hn4Wbn-29">
          <mxGeometry width="50" height="50" relative="1" as="geometry">
            <mxPoint x="320" y="280" as="sourcePoint" />
            <mxPoint x="370" y="230" as="targetPoint" />
          </mxGeometry>
        </mxCell>
        <mxCell id="de27Jn-yOiYLT7hn4Wbn-33" value="" style="endArrow=classic;html=1;rounded=0;exitX=0.5;exitY=1;exitDx=0;exitDy=0;entryX=0;entryY=0.5;entryDx=0;entryDy=0;labelBackgroundColor=none;fontColor=#1C0E00;" edge="1" parent="de27Jn-yOiYLT7hn4Wbn-1" source="de27Jn-yOiYLT7hn4Wbn-29" target="de27Jn-yOiYLT7hn4Wbn-32">
          <mxGeometry width="50" height="50" relative="1" as="geometry">
            <mxPoint x="320" y="500" as="sourcePoint" />
            <mxPoint x="370" y="450" as="targetPoint" />
            <Array as="points">
              <mxPoint x="140" y="530" />
            </Array>
          </mxGeometry>
        </mxCell>
        <mxCell id="de27Jn-yOiYLT7hn4Wbn-42" value="" style="endArrow=classic;html=1;rounded=0;exitX=1;exitY=0.5;exitDx=0;exitDy=0;entryX=0;entryY=0.5;entryDx=0;entryDy=0;labelBackgroundColor=none;fontColor=#1C0E00;" edge="1" parent="de27Jn-yOiYLT7hn4Wbn-1" source="de27Jn-yOiYLT7hn4Wbn-32" target="de27Jn-yOiYLT7hn4Wbn-34">
          <mxGeometry width="50" height="50" relative="1" as="geometry">
            <mxPoint x="350" y="590" as="sourcePoint" />
            <mxPoint x="400" y="540" as="targetPoint" />
          </mxGeometry>
        </mxCell>
        <mxCell id="de27Jn-yOiYLT7hn4Wbn-51" value="" style="endArrow=classic;html=1;rounded=0;exitX=0;exitY=0.5;exitDx=0;exitDy=0;entryX=1;entryY=0.5;entryDx=0;entryDy=0;labelBackgroundColor=none;fontColor=#1C0E00;" edge="1" parent="de27Jn-yOiYLT7hn4Wbn-1" source="de27Jn-yOiYLT7hn4Wbn-14" target="de27Jn-yOiYLT7hn4Wbn-4">
          <mxGeometry width="50" height="50" relative="1" as="geometry">
            <mxPoint x="300" y="690" as="sourcePoint" />
            <mxPoint x="350" y="640" as="targetPoint" />
          </mxGeometry>
        </mxCell>
        <mxCell id="de27Jn-yOiYLT7hn4Wbn-55" value="" style="edgeStyle=orthogonalEdgeStyle;rounded=0;orthogonalLoop=1;jettySize=auto;html=1;labelBackgroundColor=none;fontColor=#1C0E00;" edge="1" parent="de27Jn-yOiYLT7hn4Wbn-1" source="de27Jn-yOiYLT7hn4Wbn-34" target="de27Jn-yOiYLT7hn4Wbn-32">
          <mxGeometry relative="1" as="geometry" />
        </mxCell>
      </root>
    </mxGraphModel>
  </diagram>
</mxfile>
